<?xml version="1.0" encoding="utf-8"?>
<!-- Generator: Adobe Illustrator 27.4.1, SVG Export Plug-In . SVG Version: 6.00 Build 0)  -->
<svg version="1.1" id="Layer_2_00000121243110875228544350000006053953169870269861_"
	 xmlns="http://www.w3.org/2000/svg" xmlns:xlink="http://www.w3.org/1999/xlink" x="0px" y="0px" viewBox="0 0 210 240"
	 style="enable-background:new 0 0 210 240;" xml:space="preserve">
<style type="text/css">
	.st0{fill:#003B5C;}
	.st1{fill:#C6007E;}
	.st2{fill-rule:evenodd;clip-rule:evenodd;fill:#FF4088;}
	.st3{fill-rule:evenodd;clip-rule:evenodd;fill:#FFFFFF;}
	.st4{fill-rule:evenodd;clip-rule:evenodd;fill:#003B5C;}
</style>
<g id="Layer_1-2">
	<g>
		<path class="st0" d="M24.4,194.6c1-1,2.3-1.9,3.8-2.5c1.4-0.6,3.1-0.9,4.9-0.9c1.8,0,3.4,0.3,4.9,1c1.5,0.7,2.9,1.6,4.2,3l4.1-3.8
			c-1.6-1.9-3.5-3.3-5.8-4.3c-2.3-1-4.9-1.4-7.6-1.4c-2.6,0-5.1,0.4-7.3,1.3c-2.2,0.8-4.1,2.1-5.8,3.7c-1.7,1.6-2.9,3.4-3.8,5.5
			c-0.9,2.2-1.4,4.4-1.4,7c0,2.6,0.5,4.9,1.4,7c0.9,2.1,2.2,4,3.8,5.5c1.7,1.6,3.6,2.8,5.8,3.7c2.2,0.8,4.6,1.3,7.3,1.3v0
			c2.8,0,5.4-0.5,7.6-1.5c2.3-1,4.3-2.4,5.8-4.3l-4.1-3.8c-1.3,1.4-2.7,2.4-4.2,3.1c-1.6,0.7-3.1,1-4.9,1c-1.8,0-3.4-0.3-4.9-0.9
			c-1.4-0.6-2.8-1.3-3.8-2.5c-1-1.1-1.9-2.3-2.5-3.8c-0.6-1.4-0.9-3.1-0.9-4.8c0-1.7,0.3-3.3,0.9-4.8
			C22.4,196.9,23.2,195.6,24.4,194.6z"/>
		<path class="st0" d="M60.5,193.9c-2.1,0-4,0.3-6,0.8c-1.9,0.5-3.6,1.3-5,2.4l2.4,4.4c1-0.7,2.2-1.4,3.6-1.9
			c1.4-0.4,2.8-0.7,4.3-0.7c2.2,0,3.8,0.5,4.9,1.5c1.1,1,1.6,2.4,1.6,4.2v0.3h-6.7c-2.7,0-4.8,0.4-6.4,1c-1.6,0.7-2.8,1.6-3.4,2.8
			c-0.7,1.2-1,2.5-1,4s0.4,2.8,1.2,4c0.7,1.2,1.9,2.1,3.4,2.8c1.4,0.7,3.1,1,5.1,1l0,0c2.3,0,4.3-0.6,5.8-1.4c1-0.5,1.7-1.2,2.3-2
			v3.1l0,0h5.7V205c0-3.7-1-6.6-3.1-8.4C67.3,194.8,64.3,193.9,60.5,193.9z M63.9,214.9c-1.2,0.7-2.5,1-4,1c-1.6,0-2.8-0.4-3.7-1
			c-0.9-0.6-1.4-1.5-1.4-2.5c0-1,0.4-1.8,1.1-2.5c0.7-0.7,2.2-1,4.2-1h6.2v3.2C65.8,213.4,65,214.3,63.9,214.9z"/>
		<path class="st0" d="M89.5,215.5c-1.1,0-2-0.4-2.7-1c-0.7-0.7-1-1.6-1-2.8v-12.3h6.9v-4.9h-6.9v-5.9h-6.1v5.9h-4.3v4.9h4.3v12.5
			c0,2.8,0.7,5,2.3,6.5c1.5,1.5,3.7,2.2,6.6,2.2v0c1,0,2.1-0.1,3.1-0.4c1-0.3,1.9-0.7,2.7-1.4l-1.7-4.3
			C91.9,215.2,90.9,215.5,89.5,215.5z"/>
		<path class="st0" d="M108.3,193.9c-2.1,0-4,0.3-6,0.8c-1.9,0.5-3.6,1.3-5,2.4l2.4,4.4c1-0.7,2.2-1.4,3.6-1.9
			c1.4-0.4,2.8-0.7,4.3-0.7c2.2,0,3.8,0.5,4.9,1.5c1.1,1,1.6,2.4,1.6,4.2v0.3h-6.7c-2.7,0-4.8,0.4-6.4,1c-1.6,0.7-2.8,1.6-3.4,2.8
			c-0.7,1.2-1,2.5-1,4s0.4,2.8,1.2,4c0.7,1.2,1.9,2.1,3.4,2.8c1.4,0.7,3.1,1,5.1,1l0,0c2.4,0,4.3-0.6,5.8-1.4c1-0.6,1.8-1.3,2.4-2.2
			v3.2l0,0h5.7V205c0-3.7-1-6.6-3.1-8.4C115,194.8,112.1,193.9,108.3,193.9z M111.6,214.9c-1.2,0.7-2.5,1-4,1c-1.6,0-2.8-0.4-3.7-1
			c-0.9-0.6-1.4-1.5-1.4-2.5c0-1,0.4-1.8,1.1-2.5c0.7-0.7,2.2-1,4.2-1h6.3v3.1C113.5,213.3,112.7,214.3,111.6,214.9z"/>
		<rect x="126.7" y="184.1" class="st0" width="6.1" height="36.1"/>
		<path class="st0" d="M158.4,195.6c-2.1-1.1-4.5-1.7-7.2-1.7s-5,0.6-7.1,1.7c-2.1,1.2-3.7,2.8-4.9,4.7c-1.2,1.9-1.8,4.3-1.8,6.9
			c0,2.6,0.6,4.9,1.8,6.9c1.2,1.9,2.8,3.6,4.9,4.7c2.1,1.1,4.5,1.7,7.1,1.7c2.6,0,5-0.6,7.2-1.7c2.1-1.1,3.7-2.7,4.9-4.7
			c1.2-2,1.8-4.3,1.8-6.9c0-2.6-0.6-4.9-1.8-6.9C162.2,198.3,160.5,196.8,158.4,195.6z M158,211.6c-0.7,1.2-1.6,2.2-2.8,2.8
			c-1.1,0.7-2.5,1-4,1c-1.4,0-2.8-0.3-4-1c-1.2-0.7-2.1-1.6-2.8-2.8c-0.7-1.3-1-2.6-1-4.3c0-1.7,0.4-3.1,1-4.3
			c0.7-1.3,1.6-2.2,2.8-2.8c1.2-0.7,2.5-1,4-1c1.5,0,2.8,0.3,4,1c1.2,0.7,2.1,1.6,2.8,2.8c0.7,1.3,1,2.7,1,4.3
			C158.9,208.9,158.6,210.3,158,211.6z"/>
		<path class="st0" d="M189.6,194.3v3.3c-0.8-1-1.8-1.8-3-2.4c-1.8-0.9-3.8-1.4-6-1.4c-2.5,0-4.8,0.5-6.7,1.6c-2,1-3.6,2.5-4.7,4.4
			c-1.1,1.9-1.7,4.1-1.7,6.7c0,2.5,0.6,4.7,1.7,6.6c1.2,1.9,2.8,3.4,4.7,4.4c2,1,4.3,1.6,6.7,1.6v0c2.2,0,4.2-0.4,6-1.4
			c1-0.5,2-1.3,2.8-2.2v1.6c0,2.7-0.7,4.6-2,6c-1.4,1.3-3.4,1.9-6.2,1.9c-1.9,0-3.7-0.3-5.4-0.9c-1.7-0.6-3.1-1.4-4.3-2.3l-2.7,4.5
			c1.5,1.2,3.4,2.2,5.6,2.8c2.2,0.7,4.6,1,7,1l0,0c4.6,0,8-1.1,10.3-3.3c2.4-2.2,3.6-5.7,3.6-10.4v-22H189.6z M188.5,210.3
			c-0.7,1.1-1.6,2-2.8,2.6c-1.2,0.7-2.6,1-4.1,1c-1.6,0-2.8-0.4-4.1-1c-1.3-0.6-2.2-1.5-2.8-2.6c-0.7-1.1-1-2.3-1-3.8
			c0-1.5,0.3-2.8,1-3.9c0.7-1,1.6-1.9,2.8-2.5c1.2-0.6,2.5-0.9,4.1-0.9s2.9,0.3,4.1,0.9c1.2,0.6,2.1,1.4,2.8,2.5
			c0.7,1.1,1,2.4,1,3.9C189.5,207.9,189.2,209.2,188.5,210.3z"/>
	</g>
	<g>
		<path class="st1" d="M65.2,144.1H47.5V130h-6.4v34.1h6.4v-14.5h17.7c0,7.1,0,14.5,0,14.5h6.3V130h-6.3
			C65.2,130,65.2,137.3,65.2,144.1z"/>
		<path class="st1" d="M97.9,151.2c0,1.7-0.3,3.1-0.9,4.3c-0.6,1.1-1.4,2-2.5,2.6c-1,0.6-2.3,0.9-3.7,0.9c-1.9,0-3.4-0.6-4.5-1.7
			c-1-1.1-1.6-2.8-1.6-5.2v-14.1h-6.1v14.8c0,2.6,0.4,4.7,1.4,6.4c1,1.7,2.2,3,4,3.8c1.7,0.8,3.7,1.3,5.8,1.3v0c2,0,3.9-0.4,5.6-1.4
			c1.1-0.6,2-1.4,2.8-2.3v3.3h5.8v-26h-6.1V151.2z"/>
		<path class="st1" d="M130.7,141.4c-0.8-1-1.8-1.8-2.9-2.3c-1.8-0.9-3.8-1.4-6-1.4c-2.5,0-4.8,0.5-6.7,1.6c-2,1-3.6,2.5-4.7,4.4
			c-1.1,1.9-1.7,4.1-1.7,6.7c0,2.5,0.6,4.7,1.7,6.6c1.2,1.9,2.8,3.4,4.7,4.4c2,1,4.3,1.6,6.7,1.6v0c2.2,0,4.2-0.4,6-1.4
			c1-0.5,1.9-1.2,2.7-2.1v1.5c0,2.7-0.7,4.6-2,6c-1.4,1.3-3.4,1.9-6.2,1.9c-1.9,0-3.7-0.3-5.4-0.9s-3.1-1.4-4.3-2.3l-2.7,4.5
			c1.5,1.2,3.4,2.2,5.6,2.8c2.2,0.7,4.6,1,7,1l0,0c4.6,0,8-1.1,10.3-3.3c2.4-2.2,3.6-5.7,3.6-10.4v-22h-5.8V141.4z M129.5,154.2
			c-0.7,1.1-1.6,2-2.8,2.6c-1.2,0.7-2.6,1-4.1,1c-1.5,0-2.8-0.4-4.1-1c-1.3-0.6-2.2-1.5-2.8-2.6c-0.7-1.1-1-2.3-1-3.8
			c0-1.5,0.3-2.8,1-3.9c0.7-1,1.6-1.9,2.8-2.5c1.2-0.6,2.5-0.9,4.1-0.9s2.9,0.3,4.1,0.9c1.2,0.6,2.1,1.4,2.8,2.5
			c0.7,1.1,1,2.4,1,3.9C130.5,151.8,130.2,153.1,129.5,154.2z"/>
		<path class="st1" d="M167.1,144.2c-1.2-2-2.8-3.6-4.9-4.7c-2.1-1.1-4.5-1.7-7.2-1.7s-5,0.6-7.1,1.7c-2.1,1.2-3.7,2.8-4.9,4.7
			c-1.2,1.9-1.8,4.3-1.8,6.9c0,2.6,0.6,4.9,1.8,6.9c1.2,1.9,2.8,3.6,4.9,4.7c2.1,1.1,4.5,1.7,7.1,1.7c2.6,0,5-0.6,7.2-1.7
			c2.1-1.1,3.7-2.7,4.9-4.7c1.2-2,1.8-4.3,1.8-6.9C168.9,148.5,168.3,146.2,167.1,144.2z M161.7,155.5c-0.7,1.2-1.6,2.2-2.8,2.8
			c-1.1,0.7-2.5,1-4,1c-1.4,0-2.8-0.3-4-1c-1.2-0.7-2.1-1.6-2.8-2.8c-0.7-1.3-1-2.6-1-4.3c0-1.7,0.4-3.1,1-4.3
			c0.7-1.3,1.6-2.2,2.8-2.8c1.2-0.7,2.5-1,4-1c1.5,0,2.8,0.3,4,1c1.2,0.7,2.1,1.6,2.8,2.8c0.7,1.3,1,2.7,1,4.3
			C162.7,152.8,162.4,154.2,161.7,155.5z"/>
	</g>
</g>
<g>
	<g>
		<g>
			<path class="st2" d="M109.9,14.5L135,29.1c3,1.7,4.8,4.9,4.8,8.3v29.9c0,3.8-2,7.3-5.4,9.2l-24.9,14c-3.3,1.9-7.3,1.8-10.6-0.1
				L76,77.2c-3.6-2.1-5.8-5.9-5.8-10.1V38.8c0-4.2,2.2-8.1,5.7-10.3l22.5-13.9C102,12.5,106.4,12.4,109.9,14.5z"/>
			<path class="st1" d="M104.3,94.8c-2.4,0-4.7-0.6-6.8-1.8L74.6,79.8c-4.5-2.6-7.3-7.4-7.3-12.6V38.8c0-5.2,2.7-10,7.1-12.8
				l22.5-13.9c4.4-2.7,10-2.8,14.5-0.2l0,0l25.1,14.6c3.9,2.2,6.3,6.4,6.3,10.9v29.9c0,4.9-2.6,9.4-6.9,11.7L111,93
				C108.9,94.2,106.6,94.8,104.3,94.8z M104.3,15.9c-1.5,0-3,0.4-4.3,1.2L77.5,31c-2.7,1.7-4.3,4.6-4.3,7.7v28.4
				c0,3.1,1.7,6,4.3,7.5l22.9,13.2c2.4,1.4,5.3,1.4,7.7,0l24.9-14c2.4-1.3,3.9-3.9,3.9-6.6V37.4c0-2.4-1.3-4.6-3.3-5.8L108.5,17
				C107.2,16.3,105.8,15.9,104.3,15.9z"/>
		</g>
		<g>
			<polygon class="st3" points="87.6,74.9 87.6,29.5 97.1,29.5 97.1,46 112.9,46 112.9,29.5 122.4,29.5 122.4,74.9 112.9,74.9 
				112.9,55.1 97.1,55.1 97.1,74.9 			"/>
		</g>
	</g>
	<g>
		<path id="Shape_00000031908852038954000580000003667644291450645665_" class="st4" d="M164.8,43.4c-2.6-2.6-6.8-2.6-9.5,0
			l-50.4,50.5L54.6,43.4c-2.6-2.6-6.8-2.6-9.5,0c-2.6,2.6-2.6,6.8,0,9.5l55.1,55.1c1,1,2.1,1.5,3.3,1.8h0.1c0.2,0,0.5,0,0.7,0.1h0.5
			h0.5c1.6-0.1,3-0.7,4.3-1.9l55.1-55.1C167.5,50.4,167.5,46.2,164.8,43.4L164.8,43.4z"/>
	</g>
</g>
</svg>
