<?xml version="1.0" encoding="utf-8"?>
<!-- Generator: Adobe Illustrator 27.4.1, SVG Export Plug-In . SVG Version: 6.00 Build 0)  -->
<svg version="1.1" id="Layer_1" xmlns="http://www.w3.org/2000/svg" xmlns:xlink="http://www.w3.org/1999/xlink" x="0px" y="0px"
	 viewBox="0 0 577.5 72.1" style="enable-background:new 0 0 577.5 72.1;" xml:space="preserve">
<style type="text/css">
	.st0{fill:#C6007E;}
	.st1{fill:#003B5C;}
	.st2{display:none;}
	.st3{display:inline;fill:none;stroke:#000000;stroke-width:10;stroke-linecap:round;stroke-miterlimit:10;}
	.st4{fill-rule:evenodd;clip-rule:evenodd;fill:#FF4088;}
	.st5{fill-rule:evenodd;clip-rule:evenodd;fill:#FFFFFF;}
	.st6{fill-rule:evenodd;clip-rule:evenodd;fill:#003B5C;}
</style>
<g>
	<polygon class="st0" points="154.5,28.6 130.9,28.6 130.9,9.7 122.4,9.7 122.4,55.2 130.9,55.2 130.9,35.8 154.5,35.8 154.5,55.2 
		162.9,55.2 162.9,9.7 154.5,9.7 	"/>
	<path class="st0" d="M198.2,38c0,2.3-0.4,4.2-1.2,5.8c-0.8,1.5-1.9,2.7-3.3,3.5c-1.4,0.8-3.1,1.2-5,1.2c-2.6,0-4.6-0.8-6-2.3
		c-1.4-1.5-2.1-3.8-2.1-6.9V20.5h-8.2v19.8c0,3.5,0.6,6.3,1.9,8.6s3,4,5.3,5.1c2.3,1.1,4.9,1.7,7.8,1.7c2.7,0,5.2-0.6,7.5-1.9
		c1.5-0.8,2.7-1.8,3.7-3.1v4.5h7.7V20.5h-8.1V38z"/>
	<path class="st0" d="M242,24.8c-1.1-1.3-2.4-2.3-3.9-3c-2.4-1.2-5.1-1.8-8-1.8c-3.4,0-6.4,0.7-9,2.1c-2.7,1.4-4.8,3.4-6.3,5.9
		c-1.5,2.6-2.3,5.5-2.3,8.9c0,3.4,0.8,6.3,2.3,8.8c1.6,2.5,3.7,4.5,6.3,5.9c2.7,1.4,5.7,2.1,9,2.1c2.9,0,5.6-0.6,8-1.9
		c1.3-0.7,2.5-1.6,3.6-2.7V51c0,3.6-0.9,6.2-2.7,8c-1.8,1.7-4.5,2.6-8.3,2.6c-2.5,0-4.9-0.4-7.2-1.2c-2.3-0.8-4.2-1.8-5.7-3.1
		l-3.6,6c2,1.6,4.5,2.9,7.5,3.7c3,0.9,6.2,1.3,9.4,1.3c6.1,0,10.7-1.5,13.8-4.4c3.2-3,4.8-7.6,4.8-13.9V20.6H242V24.8z M240.5,42
		c-0.9,1.5-2.1,2.7-3.7,3.5c-1.6,0.9-3.5,1.3-5.5,1.3s-3.8-0.5-5.5-1.3c-1.7-0.8-2.9-2-3.8-3.5s-1.3-3.2-1.3-5.1
		c0-2,0.4-3.7,1.3-5.2c0.9-1.4,2.2-2.6,3.8-3.4c1.6-0.8,3.5-1.2,5.5-1.2c2.1,0,3.9,0.4,5.5,1.2c1.6,0.8,2.8,1.9,3.7,3.4
		c0.9,1.5,1.3,3.2,1.3,5.2C241.8,38.8,241.4,40.5,240.5,42z"/>
	<path class="st0" d="M290.7,28.7c-1.6-2.7-3.8-4.8-6.6-6.3c-2.8-1.5-6-2.3-9.6-2.3c-3.6,0-6.7,0.8-9.5,2.3c-2.8,1.6-5,3.7-6.6,6.3
		c-1.6,2.6-2.4,5.7-2.4,9.2s0.8,6.5,2.4,9.2c1.6,2.6,3.8,4.8,6.6,6.3s6,2.3,9.5,2.3s6.7-0.8,9.6-2.3c2.8-1.5,5-3.6,6.6-6.3
		c1.6-2.7,2.4-5.7,2.4-9.2S292.3,31.3,290.7,28.7z M283.5,43.7c-0.9,1.6-2.1,2.9-3.7,3.8c-1.5,0.9-3.3,1.3-5.3,1.3
		c-1.9,0-3.7-0.4-5.3-1.3c-1.6-0.9-2.8-2.1-3.7-3.8c-0.9-1.7-1.4-3.6-1.4-5.8c0-2.3,0.5-4.2,1.4-5.8c0.9-1.7,2.1-2.9,3.7-3.8
		c1.6-0.9,3.3-1.3,5.3-1.3s3.7,0.4,5.3,1.3c1.6,0.9,2.8,2.2,3.7,3.8c0.9,1.7,1.3,3.6,1.3,5.8S284.4,42,283.5,43.7z"/>
</g>
<g>
	<path class="st1" d="M326,21c1.4-1.4,3.1-2.5,5.1-3.3c1.9-0.8,4.1-1.2,6.5-1.2c2.4,0,4.6,0.4,6.6,1.3c2,0.9,3.9,2.2,5.6,4l5.5-5.1
		c-2.1-2.5-4.7-4.4-7.8-5.7c-3.1-1.3-6.5-1.9-10.2-1.9c-3.5,0-6.8,0.6-9.7,1.7c-2.9,1.1-5.5,2.8-7.7,4.9c-2.2,2.1-3.9,4.6-5.1,7.4
		c-1.2,2.9-1.8,6-1.8,9.4c0,3.5,0.6,6.6,1.8,9.4s2.9,5.3,5.1,7.4c2.2,2.1,4.8,3.8,7.7,4.9c3,1.1,6.2,1.7,9.7,1.7
		c3.8,0,7.2-0.7,10.2-2c3.1-1.3,5.7-3.2,7.8-5.7l-5.5-5.1c-1.7,1.9-3.6,3.2-5.6,4.1c-2.1,0.9-4.3,1.3-6.6,1.3
		c-2.4,0-4.5-0.4-6.5-1.2c-1.9-0.8-3.7-1.8-5.1-3.3c-1.4-1.5-2.6-3.1-3.4-5.1c-0.8-1.9-1.2-4.1-1.2-6.4c0-2.3,0.4-4.4,1.2-6.4
		S324.5,22.4,326,21z"/>
	<path class="st1" d="M374.3,20.1c-2.8,0-5.4,0.4-8,1.1c-2.6,0.7-4.8,1.8-6.7,3.2l3.2,5.9c1.3-1,2.9-1.9,4.8-2.5
		c1.9-0.6,3.8-0.9,5.7-0.9c2.9,0,5.1,0.7,6.6,2c1.5,1.4,2.2,3.2,2.2,5.6v0.4h-8.9c-3.6,0-6.4,0.5-8.5,1.4c-2.1,0.9-3.7,2.1-4.6,3.7
		c-0.9,1.6-1.4,3.3-1.4,5.3s0.5,3.8,1.6,5.4c1,1.6,2.6,2.8,4.5,3.7c1.9,0.9,4.2,1.3,6.8,1.3c3.1,0,5.8-0.8,7.8-1.9
		c1.3-0.7,2.3-1.7,3.1-2.8v4.2h7.6V34.9c0-5-1.4-8.8-4.1-11.2C383.3,21.3,379.4,20.1,374.3,20.1z M378.8,48.2
		c-1.6,0.9-3.4,1.4-5.4,1.4c-2.1,0-3.7-0.5-4.9-1.3c-1.2-0.8-1.8-2-1.8-3.4c0-1.3,0.5-2.4,1.5-3.3s2.9-1.3,5.6-1.3h8.3v4.3
		C381.3,46.1,380.3,47.4,378.8,48.2z"/>
	<path class="st1" d="M413.1,49c-1.5,0-2.7-0.5-3.6-1.4c-0.9-0.9-1.3-2.2-1.3-3.8V27.3h9.2v-6.5h-9.2v-7.9h-8.1v7.9h-5.8v6.5h5.8V44
		c0,3.8,1,6.7,3.1,8.7c2,2,5,3,8.8,3c1.4,0,2.8-0.2,4.2-0.5c1.4-0.4,2.6-1,3.6-1.8l-2.3-5.8C416.3,48.5,414.9,49,413.1,49z"/>
	<path class="st1" d="M438.1,20.1c-2.8,0-5.4,0.4-8,1.1c-2.6,0.7-4.8,1.8-6.7,3.2l3.2,5.9c1.3-1,2.9-1.9,4.8-2.5
		c1.9-0.6,3.8-0.9,5.7-0.9c2.9,0,5.1,0.7,6.6,2c1.5,1.4,2.2,3.2,2.2,5.6v0.4h-9c-3.6,0-6.4,0.5-8.5,1.4c-2.1,0.9-3.7,2.1-4.6,3.7
		c-0.9,1.6-1.4,3.3-1.4,5.3s0.5,3.8,1.6,5.4c1,1.6,2.6,2.8,4.5,3.7c1.9,0.9,4.2,1.3,6.8,1.3c3.2,0,5.8-0.8,7.8-1.9
		c1.3-0.7,2.4-1.7,3.2-2.9v4.3h7.6V34.9c0-5-1.4-8.8-4.1-11.2C447.1,21.3,443.2,20.1,438.1,20.1z M442.5,48.2
		c-1.6,0.9-3.4,1.4-5.4,1.4c-2.1,0-3.7-0.5-4.9-1.3c-1.2-0.8-1.8-2-1.8-3.4c0-1.3,0.5-2.4,1.5-3.3s2.9-1.3,5.6-1.3h8.4v4.1
		C445.1,46,444,47.3,442.5,48.2z"/>
	<rect x="462.8" y="7" class="st1" width="8.1" height="48.2"/>
	<path class="st1" d="M505.1,22.4c-2.8-1.5-6-2.3-9.6-2.3c-3.6,0-6.7,0.8-9.5,2.3c-2.8,1.6-5,3.7-6.6,6.3c-1.6,2.6-2.4,5.7-2.4,9.2
		s0.8,6.5,2.4,9.2c1.6,2.6,3.8,4.8,6.6,6.3s6,2.3,9.5,2.3s6.7-0.8,9.6-2.3c2.8-1.5,5-3.6,6.6-6.3c1.6-2.7,2.4-5.7,2.4-9.2
		s-0.8-6.6-2.4-9.2C510.1,26,507.9,23.9,505.1,22.4z M504.5,43.7c-0.9,1.6-2.1,2.9-3.7,3.8c-1.5,0.9-3.3,1.3-5.3,1.3
		c-1.9,0-3.7-0.4-5.3-1.3c-1.6-0.9-2.8-2.1-3.7-3.8c-0.9-1.7-1.4-3.6-1.4-5.8c0-2.3,0.5-4.2,1.4-5.8c0.9-1.7,2.1-2.9,3.7-3.8
		c1.6-0.9,3.3-1.3,5.3-1.3s3.7,0.4,5.3,1.3c1.6,0.9,2.8,2.2,3.7,3.8c0.9,1.7,1.3,3.6,1.3,5.8S505.4,42,504.5,43.7z"/>
	<path class="st1" d="M546.8,20.6V25c-1.1-1.3-2.4-2.4-4-3.2c-2.4-1.2-5.1-1.8-8-1.8c-3.4,0-6.4,0.7-9,2.1c-2.7,1.4-4.8,3.4-6.3,5.9
		c-1.5,2.6-2.3,5.5-2.3,8.9c0,3.4,0.8,6.3,2.3,8.8c1.6,2.5,3.7,4.5,6.3,5.9c2.7,1.4,5.7,2.1,9,2.1c3,0,5.6-0.6,8-1.9
		c1.4-0.7,2.6-1.7,3.7-2.9V51c0,3.6-0.9,6.2-2.7,8c-1.8,1.7-4.5,2.6-8.3,2.6c-2.5,0-4.9-0.4-7.2-1.2s-4.2-1.8-5.7-3.1l-3.6,6
		c2,1.6,4.5,2.9,7.5,3.7c3,0.9,6.2,1.3,9.4,1.3c6.1,0,10.7-1.5,13.8-4.4c3.2-3,4.8-7.6,4.8-13.9V20.6H546.8z M545.3,42
		c-0.9,1.5-2.1,2.7-3.7,3.5c-1.6,0.9-3.5,1.3-5.5,1.3c-2.1,0-3.8-0.5-5.5-1.3c-1.7-0.8-2.9-2-3.8-3.5c-0.9-1.5-1.3-3.2-1.3-5.1
		c0-2,0.4-3.7,1.3-5.2c0.9-1.4,2.2-2.6,3.8-3.4s3.5-1.2,5.5-1.2c2.1,0,3.9,0.4,5.5,1.2c1.6,0.8,2.8,1.9,3.7,3.4
		c0.9,1.5,1.3,3.2,1.3,5.2C546.6,38.8,546.2,40.5,545.3,42z"/>
</g>
<g id="h_vector" class="st2">
	<line class="st3" x1="73.3" y1="1.1" x2="50.4" y2="75.2"/>
	<line class="st3" x1="27.5" y1="1.1" x2="50.4" y2="75.2"/>
	<path class="st3" d="M-3.1,54.4c0-42.1,112.2-42.1,112.2,0"/>
</g>
<g>
	<g>
		<g>
			<path class="st4" d="M54,5.6L70.3,15c1.9,1.1,3.1,3.2,3.1,5.4v19.4c0,2.5-1.3,4.7-3.5,6l-16.2,9.1c-2.1,1.2-4.8,1.2-6.9,0
				L32,46.3c-2.3-1.3-3.8-3.8-3.8-6.5V21.4c0-2.7,1.4-5.2,3.7-6.7l14.6-9C48.8,4.2,51.7,4.2,54,5.6z"/>
			<path class="st0" d="M50.3,57.8c-1.5,0-3.1-0.4-4.4-1.2L31,48c-2.9-1.7-4.7-4.8-4.7-8.2V21.4c0-3.4,1.7-6.5,4.6-8.3l14.6-9
				C48.4,2.2,52,2.2,55,3.9l0,0l16.3,9.5c2.5,1.5,4.1,4.2,4.1,7.1v19.4c0,3.2-1.7,6.1-4.5,7.6l-16.2,9.1
				C53.3,57.4,51.8,57.8,50.3,57.8z M50.3,6.5c-1,0-1.9,0.3-2.8,0.8l-14.6,9c-1.8,1.1-2.8,3-2.8,5v18.4c0,2,1.1,3.9,2.8,4.9
				l14.9,8.6c1.5,0.9,3.5,0.9,5,0L69,44.2c1.5-0.9,2.5-2.5,2.5-4.3V20.4c0-1.5-0.8-3-2.2-3.8L53,7.2C52.2,6.7,51.3,6.5,50.3,6.5z"/>
		</g>
		<g>
			<polygon class="st5" points="39.5,44.8 39.5,15.3 45.7,15.3 45.7,26.1 55.9,26.1 55.9,15.3 62.1,15.3 62.1,44.8 55.9,44.8 
				55.9,31.9 45.7,31.9 45.7,44.8 			"/>
		</g>
	</g>
	<g>
		<path id="Shape_00000031908852038954000580000003667644291450645665_" class="st6" d="M89.6,24.4c-1.7-1.7-4.4-1.7-6.2,0
			L50.7,57.2L18,24.4c-1.7-1.7-4.4-1.7-6.2,0c-1.7,1.7-1.7,4.4,0,6.2l35.8,35.8c0.6,0.6,1.3,0.9,2.1,1.2h0.1c0.2,0,0.3,0,0.5,0.1
			h0.3H51c1-0.1,2-0.5,2.8-1.3l35.8-35.8C91.4,28.9,91.4,26.2,89.6,24.4L89.6,24.4z"/>
	</g>
</g>
</svg>
