<?xml version="1.0" encoding="utf-8"?>
<!-- Generator: Adobe Illustrator 27.4.1, SVG Export Plug-In . SVG Version: 6.00 Build 0)  -->
<svg version="1.1" id="Layer_2_00000059298723320875257710000017881432639027719067_"
	 xmlns="http://www.w3.org/2000/svg" xmlns:xlink="http://www.w3.org/1999/xlink" x="0px" y="0px" viewBox="0 0 250 202.3"
	 style="enable-background:new 0 0 250 202.3;" xml:space="preserve">
<style type="text/css">
	.st0{fill-rule:evenodd;clip-rule:evenodd;fill:#FF4088;}
	.st1{fill:#C6007E;}
	.st2{fill-rule:evenodd;clip-rule:evenodd;fill:#FFFFFF;}
	.st3{fill-rule:evenodd;clip-rule:evenodd;fill:#003B5C;}
</style>
<g id="Layer_2-2">
	<path class="st0" d="M135,9.1l50.7,29.5c6,3.5,9.7,9.9,9.7,16.9v60.5c0,7.7-4.1,14.8-10.8,18.5l-50.3,28.4
		c-6.7,3.8-14.8,3.7-21.5-0.1L66.4,136c-7.3-4.2-11.8-12-11.8-20.4V58.3c0-8.5,4.4-16.3,11.6-20.8l45.6-28.1
		C118.8,5,127.8,4.9,135,9.1z"/>
	<path class="st1" d="M123.6,171.6c-4.8,0-9.6-1.2-13.8-3.7l-46.4-26.7c-9.1-5.2-14.8-15-14.8-25.6V58.3C48.6,47.6,54,38,63,32.4
		l45.6-28.1c9-5.6,20.3-5.7,29.4-0.4l0,0l50.7,29.5c7.8,4.5,12.7,13,12.7,22v60.5c0,9.8-5.3,18.9-13.9,23.8L137.2,168
		C133,170.4,128.3,171.6,123.6,171.6z M123.6,12c-3,0-6.1,0.8-8.7,2.5L69.3,42.6c-5.5,3.4-8.7,9.2-8.7,15.7v57.4
		c0,6.2,3.4,12.1,8.8,15.2l46.4,26.7c4.8,2.8,10.8,2.8,15.6,0.1l50.3-28.4c4.8-2.7,7.8-7.8,7.8-13.3V55.4c0-4.8-2.6-9.3-6.7-11.7
		L132,14.2C129.4,12.7,126.5,11.9,123.6,12L123.6,12z"/>
	<polygon class="st2" points="89.8,131.3 89.8,39.5 109,39.5 109,72.9 140.9,72.9 140.9,39.5 160.2,39.5 160.2,131.3 140.9,131.3 
		140.9,91.2 109,91.2 109,131.3 	"/>
	<path id="Shape" class="st3" d="M245.9,67.6c-5.2-5.2-13.8-5.2-19.2,0L124.8,169.8L23.1,67.6c-5.2-5.2-13.8-5.2-19.2,0
		c-5.2,5.2-5.2,13.8,0,19.2l111.6,111.6c2,2,4.2,2.9,6.7,3.7h0.2c0.5,0,1,0,1.5,0.2h2c3.2-0.2,6.2-1.5,8.6-3.9L246,86.8
		C251.4,81.7,251.4,73.3,245.9,67.6L245.9,67.6L245.9,67.6z"/>
</g>
</svg>
